<svg xmlns="http://www.w3.org/2000/svg" width="100" height="100" viewBox="0 0 100 100">
   <defs>
    <style>
      .cls-1 {
        fill: #1f1740;
      }
    </style>
  </defs>
  <path id="Icon_material-account-box" data-name="Icon material-account-box" class="cls-1" d="M4.5,15.611V93.389A11.108,11.108,0,0,0,15.611,104.5H93.389A11.144,11.144,0,0,0,104.5,93.389V15.611A11.144,11.144,0,0,0,93.389,4.5H15.611A11.108,11.108,0,0,0,4.5,15.611ZM71.167,37.833A16.667,16.667,0,1,1,54.5,21.167,16.644,16.644,0,0,1,71.167,37.833Zm-50,44.444c0-11.111,22.222-17.222,33.333-17.222s33.333,6.111,33.333,17.222v5.556H21.167Z" transform="translate(-4.5 -4.5)"/>
</svg>
